<svg xmlns="http://www.w3.org/2000/svg" viewBox="0 0 24 24" id="channel">
  <path d="M21.455 14.827c-.011.013-.024.024-.036.049a6.014 6.014 0 0 1-5.111 2.842 6.402 6.402 0 0 1-1.959-.314 8.556 8.556 0 0 0 2.13-5.66 8.644 8.644 0 0 0-2.106-5.66 6.04 6.04 0 0 1 7.119 2.648c.013.013.013.025.013.037L24 7.487c-.013-.024-.025-.048-.037-.061A8.83 8.83 0 0 0 16.308 3 8.548 8.548 0 0 0 12 4.149 8.552 8.552 0 0 0 7.691 3 8.829 8.829 0 0 0 .037 7.426c-.012.013-.024.037-.037.061l2.495 1.282c0-.012 0-.024.013-.037a6.04 6.04 0 0 1 7.119-2.647 8.648 8.648 0 0 0-2.105 5.66c0 2.165.802 4.148 2.129 5.66a6.408 6.408 0 0 1-1.96.314 6.015 6.015 0 0 1-5.111-2.842c-.012-.025-.024-.036-.036-.049l-1.241.629-1.242.641c0 .011.012.011.012.024 0 .011.012.011.012.024A8.832 8.832 0 0 0 7.691 20.5 8.667 8.667 0 0 0 12 19.363a8.663 8.663 0 0 0 4.308 1.137 8.83 8.83 0 0 0 7.606-4.355c0-.013.012-.013.012-.024 0-.012.012-.012.012-.024l-1.241-.641-1.242-.629zM12 15.892a6.031 6.031 0 0 1-1.679-4.148c0-1.584.621-3.023 1.679-4.099a5.798 5.798 0 0 1 1.68 4.099c0 1.609-.658 3.072-1.68 4.148z"></path>
</svg>